<svg width="783" height="466" fill="none" xmlns="http://www.w3.org/2000/svg">
  <g filter="url(#a)">
    <path fill-rule="evenodd" clip-rule="evenodd" d="m317.639 30.862 48.548 172.995 11.894-14.9H673c13.807 0 25 11.193 25 25 0 13.808-11.193 25-25 25H402.145l-57.74 72.335-29.79-106.154-63.848 200.497-58.478-184.839-6.796 18.161H55c-13.807 0-25-11.192-25-25 0-13.807 11.193-25 25-25h95.817l45.429-121.413 54.677 172.821 66.716-209.503Z" fill="#223E96" fill-opacity=".33"/>
  </g>
  <g filter="url(#b)">
    <path fill-rule="evenodd" clip-rule="evenodd" d="m317.639 60.862 48.548 172.995 11.894-14.9H673c13.807 0 25 11.193 25 25 0 13.808-11.193 25-25 25H402.145l-57.74 72.335-29.79-106.154-63.848 200.497-58.478-184.839-6.796 18.161H55c-13.807 0-25-11.192-25-25 0-13.807 11.193-25 25-25h95.817l45.429-121.413 54.677 172.821 66.716-209.503Z" fill="#F49BDA" fill-opacity=".4"/>
  </g>
  <path d="M179.891 223.469v-12.188h13.171v12.188h-13.171Zm0 56.531v-49.781h13.171V280h-13.171Zm23.814-49.781h12.141v6.797c4.343-5.282 9.515-7.922 15.515-7.922 3.188 0 5.953.656 8.297 1.968 2.344 1.313 4.266 3.297 5.766 5.954 2.187-2.657 4.547-4.641 7.078-5.954a17.369 17.369 0 0 1 8.109-1.968c3.657 0 6.75.75 9.282 2.25 2.531 1.468 4.421 3.64 5.671 6.515.907 2.125 1.36 5.563 1.36 10.313V280h-13.172v-28.453c0-4.938-.453-8.125-1.359-9.563-1.219-1.875-3.094-2.812-5.625-2.812-1.844 0-3.579.562-5.204 1.687-1.625 1.125-2.796 2.782-3.515 4.969-.719 2.156-1.078 5.578-1.078 10.266V280h-13.172v-27.281c0-4.844-.235-7.969-.703-9.375-.469-1.406-1.203-2.453-2.203-3.141-.969-.687-2.297-1.031-3.985-1.031-2.031 0-3.859.547-5.484 1.64-1.625 1.094-2.797 2.672-3.516 4.735-.687 2.062-1.031 5.484-1.031 10.265V280h-13.172v-49.781Zm87.002 13.172v-13.172h13.172v13.172h-13.172Zm0 36.609v-13.172h13.172V280h-13.172Zm27.142-49.781h12.282v7.312c1.593-2.5 3.75-4.531 6.468-6.093 2.719-1.563 5.735-2.344 9.047-2.344 5.782 0 10.688 2.265 14.719 6.797 4.031 4.531 6.047 10.843 6.047 18.937 0 8.313-2.031 14.781-6.094 19.406-4.062 4.594-8.984 6.891-14.765 6.891-2.75 0-5.25-.547-7.5-1.641-2.219-1.093-4.563-2.968-7.032-5.625v25.079h-13.172v-68.719Zm13.032 24.047c0 5.593 1.109 9.734 3.328 12.422 2.219 2.656 4.922 3.984 8.109 3.984 3.063 0 5.61-1.219 7.641-3.656 2.031-2.469 3.047-6.5 3.047-12.094 0-5.219-1.047-9.094-3.141-11.625-2.094-2.531-4.687-3.797-7.781-3.797-3.219 0-5.891 1.25-8.016 3.75-2.125 2.469-3.187 6.141-3.187 11.016ZM407.758 280v-7.453c-1.813 2.656-4.204 4.75-7.172 6.281-2.938 1.531-6.047 2.297-9.328 2.297-3.344 0-6.344-.734-9-2.203-2.657-1.469-4.579-3.531-5.766-6.188-1.188-2.656-1.781-6.328-1.781-11.015v-31.5h13.172v22.875c0 7 .234 11.297.703 12.89.5 1.563 1.39 2.813 2.672 3.75 1.281.907 2.906 1.36 4.875 1.36 2.25 0 4.265-.61 6.046-1.828 1.782-1.25 3-2.782 3.657-4.594.656-1.844.984-6.328.984-13.453v-21h13.172V280h-12.234Zm24.001 0v-68.719h13.172V280h-13.172Zm20.159-14.203 13.218-2.016c.563 2.563 1.703 4.516 3.422 5.86 1.719 1.312 4.125 1.968 7.219 1.968 3.406 0 5.969-.625 7.687-1.875 1.157-.875 1.735-2.046 1.735-3.515 0-1-.313-1.828-.938-2.485-.656-.625-2.125-1.203-4.406-1.734-10.625-2.344-17.359-4.484-20.203-6.422-3.938-2.687-5.906-6.422-5.906-11.203 0-4.313 1.703-7.937 5.109-10.875 3.406-2.938 8.688-4.406 15.844-4.406 6.812 0 11.875 1.109 15.187 3.328 3.313 2.219 5.594 5.5 6.844 9.844l-12.422 2.296c-.531-1.937-1.547-3.421-3.047-4.453-1.468-1.031-3.578-1.547-6.328-1.547-3.469 0-5.953.485-7.453 1.454-1 .687-1.5 1.578-1.5 2.672 0 .937.438 1.734 1.313 2.39 1.187.875 5.281 2.11 12.281 3.703 7.031 1.594 11.937 3.547 14.719 5.86 2.75 2.343 4.125 5.609 4.125 9.797 0 4.562-1.907 8.484-5.719 11.765-3.813 3.281-9.453 4.922-16.922 4.922-6.781 0-12.156-1.375-16.125-4.125-3.938-2.75-6.516-6.484-7.734-11.203Zm84.986-1.641 13.125 2.203c-1.688 4.813-4.36 8.485-8.016 11.016-3.625 2.5-8.172 3.75-13.641 3.75-8.656 0-15.062-2.828-19.218-8.484-3.282-4.532-4.922-10.25-4.922-17.157 0-8.25 2.156-14.703 6.469-19.359 4.312-4.687 9.765-7.031 16.359-7.031 7.406 0 13.25 2.453 17.531 7.359 4.281 4.875 6.328 12.359 6.141 22.453h-33c.094 3.906 1.156 6.953 3.187 9.141 2.032 2.156 4.563 3.234 7.594 3.234 2.063 0 3.797-.562 5.203-1.687 1.406-1.125 2.469-2.938 3.188-5.438Zm.75-13.312c-.094-3.813-1.078-6.703-2.953-8.672-1.875-2-4.157-3-6.844-3-2.875 0-5.25 1.047-7.125 3.14-1.875 2.094-2.797 4.938-2.766 8.532h19.688Zm-344.873-72.321v-4.031l14.555-.023v12.75c-2.234 1.781-4.539 3.125-6.914 4.031a20.66 20.66 0 0 1-7.313 1.336c-3.375 0-6.445-.719-9.211-2.156-2.75-1.453-4.828-3.547-6.234-6.282-1.406-2.734-2.109-5.789-2.109-9.164 0-3.343.695-6.461 2.086-9.351 1.406-2.906 3.421-5.063 6.047-6.469 2.624-1.406 5.648-2.109 9.07-2.109 2.484 0 4.726.406 6.726 1.218 2.016.797 3.594 1.915 4.735 3.352 1.14 1.437 2.008 3.313 2.601 5.625l-4.101 1.125c-.516-1.75-1.157-3.125-1.922-4.125-.766-1-1.859-1.797-3.281-2.391-1.422-.609-3-.914-4.735-.914-2.078 0-3.875.321-5.39.961-1.516.625-2.743 1.453-3.68 2.485a12.016 12.016 0 0 0-2.156 3.398c-.875 2.125-1.313 4.43-1.313 6.914 0 3.063.524 5.625 1.57 7.688 1.063 2.062 2.602 3.593 4.618 4.593 2.015 1 4.156 1.5 6.422 1.5 1.968 0 3.89-.375 5.765-1.125 1.875-.765 3.297-1.578 4.266-2.437v-6.399h-10.102ZM212.915 192v-34.359h4.547v17.039l17.062-17.039h6.164l-14.414 13.921L241.321 192h-6l-12.234-17.391-5.625 5.485V192h-4.547Z" fill="#000" style="fill:#fff;fill-opacity:1"/>
  <path d="m253.978 192-13.312-34.359h4.922l8.93 24.961c.718 2 1.32 3.875 1.804 5.625a71.583 71.583 0 0 1 1.852-5.625l9.281-24.961h4.641L258.643 192h-4.665Z" fill="#000" style="fill:#fff;fill-opacity:1"/>
  <defs>
    <filter id="a" x="0" y=".862" width="728" height="434.773" filterUnits="userSpaceOnUse" color-interpolation-filters="sRGB">
      <feFlood flood-opacity="0" result="BackgroundImageFix"/>
      <feBlend in="SourceGraphic" in2="BackgroundImageFix" result="shape"/>
      <feGaussianBlur stdDeviation="15" result="effect1_foregroundBlur_481_501"/>
    </filter>
    <filter id="b" x="0" y="30.862" width="728" height="434.773" filterUnits="userSpaceOnUse" color-interpolation-filters="sRGB">
      <feFlood flood-opacity="0" result="BackgroundImageFix"/>
      <feBlend in="SourceGraphic" in2="BackgroundImageFix" result="shape"/>
      <feGaussianBlur stdDeviation="15" result="effect1_foregroundBlur_481_501"/>
    </filter>
  </defs>
</svg>
