<?xml version="1.0" encoding="UTF-8" standalone="no"?>
<svg
   width="376"
   height="142"
   viewBox="0 0 376 142"
   fill="none"
   version="1.1"
   id="svg31"
   sodipodi:docname="gkv-impulse.svg"
   inkscape:version="1.2.1 (9c6d41e, 2022-07-14)"
   xmlns:inkscape="http://www.inkscape.org/namespaces/inkscape"
   xmlns:sodipodi="http://sodipodi.sourceforge.net/DTD/sodipodi-0.dtd"
   xmlns="http://www.w3.org/2000/svg"
   xmlns:svg="http://www.w3.org/2000/svg">
  <defs
     id="defs35" />
  <sodipodi:namedview
     id="namedview33"
     pagecolor="#ffffff"
     bordercolor="#666666"
     borderopacity="1.0"
     inkscape:showpageshadow="2"
     inkscape:pageopacity="0.0"
     inkscape:pagecheckerboard="0"
     inkscape:deskcolor="#d1d1d1"
     showgrid="false"
     inkscape:zoom="1.6619718"
     inkscape:cx="188.02966"
     inkscape:cy="71"
     inkscape:window-width="1309"
     inkscape:window-height="456"
     inkscape:window-x="55"
     inkscape:window-y="38"
     inkscape:window-maximized="0"
     inkscape:current-layer="svg31" />
  <path
     d="M4.33594 66.4141V54.2266H17.5078V66.4141H4.33594ZM4.33594 122.945V73.1641H17.5078V122.945H4.33594Z"
     fill="black"
     id="path9"
     style="fill:#ffffff" />
  <path
     d="M28.1503 73.1641H40.2909V79.9609C44.6347 74.6797 49.8066 72.0391 55.8066 72.0391C58.9941 72.0391 61.7597 72.6953 64.1034 74.0078C66.4472 75.3203 68.3691 77.3047 69.8691 79.9609C72.0566 77.3047 74.4159 75.3203 76.9472 74.0078C79.4784 72.6953 82.1816 72.0391 85.0566 72.0391C88.7128 72.0391 91.8066 72.7891 94.3378 74.2891C96.8691 75.7578 98.7597 77.9297 100.01 80.8047C100.916 82.9297 101.369 86.3672 101.369 91.1172V122.945H88.1972V94.4922C88.1972 89.5547 87.7441 86.3672 86.8378 84.9297C85.6191 83.0547 83.7441 82.1172 81.2128 82.1172C79.3691 82.1172 77.6347 82.6797 76.0097 83.8047C74.3847 84.9297 73.2128 86.5859 72.4941 88.7734C71.7753 90.9297 71.4159 94.3516 71.4159 99.0391V122.945H58.2441V95.6641C58.2441 90.8203 58.0097 87.6953 57.5409 86.2891C57.0722 84.8828 56.3378 83.8359 55.3378 83.1484C54.3691 82.4609 53.0409 82.1172 51.3534 82.1172C49.3222 82.1172 47.4941 82.6641 45.8691 83.7578C44.2441 84.8516 43.0722 86.4297 42.3534 88.4922C41.6659 90.5547 41.3222 93.9766 41.3222 98.7578V122.945H28.1503V73.1641Z"
     fill="black"
     id="path11"
     style="fill:#ffffff" />
  <path
     d="M115.152 86.3359V73.1641H128.324V86.3359H115.152ZM115.152 122.945V109.773H128.324V122.945H115.152Z"
     fill="black"
     id="path13"
     style="fill:#ffffff" />
  <path
     d="M142.295 73.1641H154.576V80.4766C156.17 77.9766 158.326 75.9453 161.045 74.3828C163.763 72.8203 166.779 72.0391 170.092 72.0391C175.873 72.0391 180.779 74.3047 184.81 78.8359C188.842 83.3672 190.857 89.6797 190.857 97.7734C190.857 106.086 188.826 112.555 184.763 117.18C180.701 121.773 175.779 124.07 169.998 124.07C167.248 124.07 164.748 123.523 162.498 122.43C160.279 121.336 157.935 119.461 155.467 116.805V141.883H142.295V73.1641ZM155.326 97.2109C155.326 102.805 156.435 106.945 158.654 109.633C160.873 112.289 163.576 113.617 166.763 113.617C169.826 113.617 172.373 112.398 174.404 109.961C176.435 107.492 177.451 103.461 177.451 97.8672C177.451 92.6484 176.404 88.7734 174.31 86.2422C172.217 83.7109 169.623 82.4453 166.529 82.4453C163.31 82.4453 160.638 83.6953 158.513 86.1953C156.388 88.6641 155.326 92.3359 155.326 97.2109Z"
     fill="black"
     id="path15"
     style="fill:#ffffff" />
  <path
     d="M232.203 122.945V115.492C230.39 118.148 228 120.242 225.031 121.773C222.093 123.305 218.984 124.07 215.703 124.07C212.359 124.07 209.359 123.336 206.703 121.867C204.047 120.398 202.125 118.336 200.937 115.68C199.75 113.023 199.156 109.352 199.156 104.664V73.1641H212.328V96.0391C212.328 103.039 212.562 107.336 213.031 108.93C213.531 110.492 214.422 111.742 215.703 112.68C216.984 113.586 218.609 114.039 220.578 114.039C222.828 114.039 224.843 113.43 226.625 112.211C228.406 110.961 229.625 109.43 230.281 107.617C230.937 105.773 231.265 101.289 231.265 94.1641V73.1641H244.437V122.945H232.203Z"
     fill="black"
     id="path17"
     style="fill:#ffffff" />
  <path
     d="M256.205 122.945V54.2266H269.377V122.945H256.205Z"
     fill="black"
     id="path19"
     style="fill:#ffffff" />
  <path
     d="M276.363 108.742L289.582 106.727C290.144 109.289 291.285 111.242 293.003 112.586C294.722 113.898 297.128 114.555 300.222 114.555C303.628 114.555 306.191 113.93 307.91 112.68C309.066 111.805 309.644 110.633 309.644 109.164C309.644 108.164 309.332 107.336 308.707 106.68C308.05 106.055 306.582 105.477 304.3 104.945C293.675 102.602 286.941 100.461 284.097 98.5234C280.16 95.8359 278.191 92.1016 278.191 87.3203C278.191 83.0078 279.894 79.3828 283.3 76.4453C286.707 73.5078 291.988 72.0391 299.144 72.0391C305.957 72.0391 311.019 73.1484 314.332 75.3672C317.644 77.5859 319.925 80.8672 321.175 85.2109L308.753 87.5078C308.222 85.5703 307.207 84.0859 305.707 83.0547C304.238 82.0234 302.128 81.5078 299.378 81.5078C295.91 81.5078 293.425 81.9922 291.925 82.9609C290.925 83.6484 290.425 84.5391 290.425 85.6328C290.425 86.5703 290.863 87.3672 291.738 88.0234C292.925 88.8984 297.019 90.1328 304.019 91.7266C311.05 93.3203 315.957 95.2734 318.738 97.5859C321.488 99.9297 322.863 103.195 322.863 107.383C322.863 111.945 320.957 115.867 317.144 119.148C313.332 122.43 307.691 124.07 300.222 124.07C293.441 124.07 288.066 122.695 284.097 119.945C280.16 117.195 277.582 113.461 276.363 108.742Z"
     fill="black"
     id="path21"
     style="fill:#ffffff" />
  <path
     d="M361.349 107.102L374.474 109.305C372.787 114.117 370.115 117.789 366.458 120.32C362.833 122.82 358.287 124.07 352.818 124.07C344.162 124.07 337.755 121.242 333.599 115.586C330.318 111.055 328.677 105.336 328.677 98.4297C328.677 90.1797 330.833 83.7266 335.146 79.0703C339.458 74.3828 344.912 72.0391 351.505 72.0391C358.912 72.0391 364.755 74.4922 369.037 79.3984C373.318 84.2734 375.365 91.7578 375.177 101.852H342.177C342.271 105.758 343.333 108.805 345.365 110.992C347.396 113.148 349.927 114.227 352.958 114.227C355.021 114.227 356.755 113.664 358.162 112.539C359.568 111.414 360.63 109.602 361.349 107.102ZM362.099 93.7891C362.005 89.9766 361.021 87.0859 359.146 85.1172C357.271 83.1172 354.99 82.1172 352.302 82.1172C349.427 82.1172 347.052 83.1641 345.177 85.2578C343.302 87.3516 342.38 90.1953 342.412 93.7891H362.099Z"
     fill="black"
     id="path23"
     style="fill:#ffffff" />
  <path
     d="M17.2266 21.4688V17.4375L31.7812 17.4141V30.1641C29.5469 31.9453 27.2422 33.2891 24.8672 34.1953C22.4922 35.0859 20.0547 35.5312 17.5547 35.5312C14.1797 35.5312 11.1094 34.8125 8.34375 33.375C5.59375 31.9219 3.51562 29.8281 2.10938 27.0938C0.703125 24.3594 0 21.3047 0 17.9297C0 14.5859 0.695312 11.4688 2.08594 8.57812C3.49219 5.67188 5.50781 3.51562 8.13281 2.10938C10.7578 0.703125 13.7812 0 17.2031 0C19.6875 0 21.9297 0.40625 23.9297 1.21875C25.9453 2.01562 27.5234 3.13281 28.6641 4.57031C29.8047 6.00781 30.6719 7.88281 31.2656 10.1953L27.1641 11.3203C26.6484 9.57031 26.0078 8.19531 25.2422 7.19531C24.4766 6.19531 23.3828 5.39844 21.9609 4.80469C20.5391 4.19531 18.9609 3.89062 17.2266 3.89062C15.1484 3.89062 13.3516 4.21094 11.8359 4.85156C10.3203 5.47656 9.09375 6.30469 8.15625 7.33594C7.23438 8.36719 6.51562 9.5 6 10.7344C5.125 12.8594 4.6875 15.1641 4.6875 17.6484C4.6875 20.7109 5.21094 23.2734 6.25781 25.3359C7.32031 27.3984 8.85938 28.9297 10.875 29.9297C12.8906 30.9297 15.0312 31.4297 17.2969 31.4297C19.2656 31.4297 21.1875 31.0547 23.0625 30.3047C24.9375 29.5391 26.3594 28.7266 27.3281 27.8672V21.4688H17.2266Z"
     fill="black"
     id="path25"
     style="fill:#ffffff" />
  <path
     d="M37.3603 34.9453V0.585938H41.9072V17.625L58.9697 0.585938H65.1338L50.7197 14.5078L65.7666 34.9453H59.7666L47.5322 17.5547L41.9072 23.0391V34.9453H37.3603Z"
     fill="black"
     id="path27"
     style="fill:#ffffff" />
  <path
     d="M78.4238 34.9453L65.1113 0.585938H70.0331L78.9628 25.5469C79.6816 27.5469 80.2831 29.4219 80.7675 31.1719C81.2988 29.2969 81.9159 27.4219 82.6191 25.5469L91.9003 0.585938H96.5409L83.0878 34.9453H78.4238Z"
     fill="black"
     id="path29"
     style="fill:#ffffff" />
</svg>
